<svg viewBox="164.16 155.51999999999998 702 786.24" xmlns="http://www.w3.org/2000/svg" data-name="Layer 1" id="Layer_1" style="max-height: 500px" width="702" height="786.24">
  <defs>
    <style>
      .cls-1 {
        fill: #908f8f;
      }

      .cls-2 {
        fill: #fff;
      }

      .cls-3 {
        fill: #bc202e;
      }

      .cls-4 {
        fill: #2b7fff;
      }

      .cls-5 {
        fill: #e4e5e6;
      }

      .cls-6 {
        fill: #811518;
      }

      .cls-7 {
        fill: #4d4c4d;
      }
    </style>
  </defs>
  <g>
    <g>
      <path d="M842.17,864.76v-56.21s-172.19,0-172.19,0c-48.49-5.2-104.38-8.17-163.9-8.17-59.52,0-115.41,2.97-163.9,8.17h-172.2s0,56.21,0,56.21c0,35.55,150.47,64.37,336.09,64.37,185.62,0,336.09-28.82,336.09-64.37Z" class="cls-7"/>
      <ellipse ry="64.37" rx="336.09" cy="808.55" cx="506.08" class="cls-1"/>
      <ellipse ry="54.5" rx="284.52" cy="805.18" cx="506.08" class="cls-5"/>
      <ellipse ry="43.08" rx="224.92" cy="801.81" cx="506.08" class="cls-1"/>
      <ellipse ry="34.84" rx="181.91" cy="801.81" cx="506.08" class="cls-5"/>
      <ellipse ry="25.45" rx="132.88" cy="800.68" cx="506.08" class="cls-1"/>
      <ellipse ry="17.04" rx="88.98" cy="799.56" cx="506.08" class="cls-5"/>
      <g>
        <path d="M510.61,798.73c-.12-.03-.23-.08-.35-.11l-21.24.6-14.35.4v-6.04s14.35.4,14.35.4l21.59.61c3.57-1.15,10.04-1.92,17.45-1.95h.54c11.59,0,21.01,1.8,21.01,4.02,0,2.22-9.42,4.02-21.01,4.02h-.54c-7.42-.03-13.86-.81-17.45-1.94Z" class="cls-3"/>
        <path d="M489.02,799.22v-5.24s21.59.61,21.59.61v4.15c-.12-.03-.23-.08-.35-.11l-21.24.6Z" class="cls-6"/>
        <path d="M528.61,800.68h-.54v-8.04h.54c11.59,0,21.01,1.8,21.01,4.02,0,2.22-9.42,4.02-21.01,4.02Z" class="cls-6"/>
      </g>
    </g>
    <ellipse ry="17.04" rx="88.98" cy="799.56" cx="506.08" class="cls-5"/>
    <ellipse ry="3.76" rx="19.5" cy="796.6" cx="510.61" class="cls-7"/>
  </g>
  <path d="M881.88,162.86c-45.43,0-88.9,18.72-130.35,56.15-28.07,24.97-52.55,62.18-73.5,111.69l-136.73,318.99c7.12,15.11,15.26,28.59,20.63,43l165.56-361.99c7.13-15.18,14.91-30.58,23.39-46.13,5.33-10.28,10.83-19.1,16.38-26.44,5.55-7.34,13.17-16.92,22.74-28.73,9.58-11.81,25.73-24.64,48.47-38.46,20.02-12.02,43.9-18.72,71.54-20.02v-6.69c-7.62-.92-16.97-1.36-28.13-1.36Z" class="cls-2"/>
  <path d="M539.63,653.59l-113.65-276.1c-1.79-5.39-2.66-10.72-2.66-16.05s2.34-11.04,7.02-17.08c4.68-5.98,11.91-8.98,21.71-8.98h5.39v-6.69h-212.61v6.69h5.33c10.72,0,21.16,3.21,31.45,9.68,14.11,8.89,21.63,21.26,25.41,28.4,13.64,25.78,91.87,194.28,197.6,426.71,2.15.23,5.17.53,8,.34,1.86-.13,3.19-.15,5.43-.44,2.46-8.36,4.92-17.24,8.13-26.15,6.86-19.05,14.46-36.23,22.18-51.52l10.83-23.68c-1.57-3.6-2.77-7.19-2.77-10.79,0,3.6,1.2,7.19,2.77,10.79l2.76-6.04c-5.37-14.41-13.51-27.9-20.63-43l-1.67,3.9Z" class="cls-4"/>
</svg>