<?xml version="1.0" encoding="UTF-8"?>
<svg id="Layer_1" data-name="Layer 1" xmlns="http://www.w3.org/2000/svg" viewBox="0 0 1080 195.85">
  <defs>
    <style>
      .cls-1, .cls-2 {
        fill: #fcfdff;
      }

      .cls-3 {
        fill: #908f8f;
      }

      .cls-4 {
        fill: #bc202e;
      }

      .cls-5 {
        fill: #2b7fff;
      }

      .cls-2 {
        font-family: EthnocentricRg-Regular, Ethnocentric;
        font-size: 142.15px;
      }

      .cls-6 {
        fill: #e4e5e6;
      }

      .cls-7 {
        fill: #811518;
      }

      .cls-8 {
        fill: #4d4c4d;
      }
    </style>
  </defs>
  <g>
    <g>
      <path class="cls-8" d="M783.28,164.57v-11.95s-36.61,0-36.61,0c-10.31-1.11-22.19-1.74-34.85-1.74-12.66,0-24.54.63-34.85,1.74h-36.61s0,11.95,0,11.95c0,7.56,32,13.69,71.46,13.69,39.47,0,71.46-6.13,71.46-13.69Z"/>
      <ellipse class="cls-3" cx="711.81" cy="152.62" rx="71.46" ry="13.69"/>
      <ellipse class="cls-6" cx="711.81" cy="151.9" rx="60.5" ry="11.59"/>
      <ellipse class="cls-3" cx="711.81" cy="151.18" rx="47.83" ry="9.16"/>
      <ellipse class="cls-6" cx="711.81" cy="151.18" rx="38.68" ry="7.41"/>
      <ellipse class="cls-3" cx="711.81" cy="150.94" rx="28.25" ry="5.41"/>
      <ellipse class="cls-6" cx="711.81" cy="150.71" rx="18.92" ry="3.62"/>
      <g>
        <path class="cls-4" d="M712.78,150.53s-.05-.02-.07-.02l-4.52.13-3.05.09v-1.29s3.05.09,3.05.09l4.59.13c.76-.24,2.13-.41,3.71-.42h.12c2.46,0,4.47.38,4.47.86s-2,.86-4.47.86h-.12c-1.58,0-2.95-.17-3.71-.41Z"/>
        <path class="cls-7" d="M708.19,150.63v-1.11s4.59.13,4.59.13v.88s-.05-.02-.07-.02l-4.52.13Z"/>
        <path class="cls-7" d="M716.6,150.94h-.12v-1.71h.12c2.46,0,4.47.38,4.47.86s-2,.86-4.47.86Z"/>
      </g>
    </g>
    <ellipse class="cls-6" cx="711.81" cy="150.71" rx="18.92" ry="3.62"/>
    <ellipse class="cls-8" cx="712.78" cy="150.08" rx="4.15" ry=".8"/>
  </g>
  <g>
    <path class="cls-5" d="M93.67,87.14c23.17,0,35.67,8.67,35.67,26.01,0,19.47-11.79,31.13-40.79,31.13H0l18.91-24.45h71.92c6.96,0,10.09-1.99,10.09-6.97s-3.13-6.82-10.09-6.82h-51.74c-24.45,0-35.67-10.95-35.67-27.29,0-17.91,11.94-29.57,40.79-29.57h82.58l-18.91,24.73H41.93c-6.82,0-10.09,1.7-10.09,6.54s3.27,6.68,10.09,6.68h51.74Z"/>
    <path class="cls-5" d="M252.02,49.19l-19.05,24.73h-33.97v70.36h-29.42v-70.36h-44.63l19.05-24.73h108.02Z"/>
    <path class="cls-5" d="M386.35,144.28h-39.37l-21.18-25.16h-45.2v25.16h-29.42v-48.61h82.72c9.1,0,16.2-4.12,16.2-10.66,0-7.39-6.11-11.09-16.2-11.09h-82.72l19.19-24.73h61.12c21.6,0,48.89,6.82,48.89,33.97,0,14.78-9.24,27-24.87,30.13,3.27,2.42,6.82,5.83,13.36,12.51l17.49,18.48Z"/>
    <path class="cls-5" d="M437.11,144.28l17.77-24.45h23.88c5.68,0,12.37,0,16.91.28-2.56-3.41-6.54-9.24-9.67-13.79l-17.06-25.16-44.63,63.11h-34.82l60.98-85.99c3.98-5.54,9.81-10.66,19.05-10.66s14.64,4.69,18.76,10.66l59.42,85.99h-110.58Z"/>
    <path class="cls-5" d="M645.92,49.19l-19.05,24.73h-33.97v70.36h-29.42v-70.36h-44.63l19.05-24.73h108.02Z"/>
  </g>
  <text class="cls-2" transform="translate(780.07 144.28)"><tspan x="0" y="0">ICE</tspan></text>
  <path class="cls-1" d="M791.72,15.32c-9.66,0-18.9,3.98-27.72,11.94-5.97,5.31-11.17,13.22-15.63,23.75l-29.07,67.83c1.51,3.21,3.25,6.08,4.39,9.14l35.2-76.97c1.52-3.23,3.17-6.5,4.97-9.81,1.13-2.19,2.3-4.06,3.48-5.62,1.18-1.56,2.8-3.6,4.84-6.11,2.04-2.51,5.47-5.24,10.31-8.18,4.26-2.56,9.34-3.98,15.21-4.26v-1.42c-1.62-.2-3.61-.29-5.98-.29Z"/>
  <path class="cls-5" d="M718.95,119.67l-24.17-58.71c-.38-1.15-.57-2.28-.57-3.41s.5-2.35,1.49-3.63c.99-1.27,2.53-1.91,4.62-1.91h1.15v-1.42h-45.21v1.42h1.13c2.28,0,4.5.68,6.69,2.06,3,1.89,4.6,4.52,5.4,6.04,2.9,5.48,19.54,41.31,42.02,90.73.46.05,1.1.11,1.7.07.4-.03.68-.03,1.15-.09.52-1.78,1.05-3.67,1.73-5.56,1.46-4.05,3.08-7.7,4.72-10.95l2.3-5.03c-.33-.76-.59-1.53-.59-2.29,0,.76.26,1.53.59,2.29l.59-1.28c-1.14-3.06-2.87-5.93-4.39-9.14l-.36.83Z"/>
</svg>