<?xml version="1.0" encoding="UTF-8"?>
<svg id="Layer_1" data-name="Layer 1" xmlns="http://www.w3.org/2000/svg" viewBox="0 0 1500 1500">
  <defs>
    <style>
      .cls-1 {
        fill: #079fde;
      }

      .cls-2 {
        fill: #242834;
      }

      .cls-3 {
        fill: none;
        stroke: #fff;
        stroke-miterlimit: 10;
        stroke-width: 9.58px;
      }
    </style>
  </defs>
  <g>
    <path class="cls-2" d="M336.7,520.41h232.09v452.68h-232.09c-118.92,0-215.47-96.55-215.47-215.47v-21.73c0-118.92,96.55-215.47,215.47-215.47Z"/>
    <path class="cls-2" d="M478.23,998.44c27.65-2.54,64.06-3.39,105.96,2.44,33.94,4.72,62.7,12.59,85.34,20.39-.08,30.81,1.45,64.8,5.63,101.39,4.83,42.3,12.33,80.66,20.84,114.51.34,1.77,2.54,14.56-7.56,25.48-6.26,6.77-15.65,11.14-26.33,11.14h-44.44c-64.78,0-116.45-42.36-128.13-101.59-.17-1.19-.34-2.39-.52-3.58-3.6-56.73-7.21-113.45-10.81-170.18Z"/>
    <path class="cls-2" d="M748.49,462.12v567.14c-27.85-16.08-63.45-32.88-106.44-45-17.6-4.96-34.5-8.62-50.09-11.2,0-150.89,0-301.96,0-452.84,20.69-3.85,44.08-9.59,69.22-18.2,34.85-11.95,64.04-26.36,87.32-39.89Z"/>
    <polygon class="cls-1" points="771.79 451.48 771.79 1037.68 1155.63 1182.39 1155.63 446.69 1242.37 414.48 1242.62 1215.45 1378.78 1266.8 1378.78 226.21 1014.79 361.37 1014.79 991.77 928.16 959.57 928.16 393.48 771.79 451.48"/>
  </g>
  <g>
    <path class="cls-3" d="M336.7,520.41h232.09v452.68h-232.09c-118.92,0-215.47-96.55-215.47-215.47v-21.73c0-118.92,96.55-215.47,215.47-215.47Z"/>
    <path class="cls-3" d="M478.23,998.44c27.65-2.54,64.06-3.39,105.96,2.44,33.94,4.72,62.7,12.59,85.34,20.39-.08,30.81,1.45,64.8,5.63,101.39,4.83,42.3,12.33,80.66,20.84,114.51.34,1.77,2.54,14.56-7.56,25.48-6.26,6.77-15.65,11.14-26.33,11.14h-44.44c-64.78,0-116.45-42.36-128.13-101.59-.17-1.19-.34-2.39-.52-3.58-3.6-56.73-7.21-113.45-10.81-170.18Z"/>
    <path class="cls-3" d="M748.49,462.12v567.14c-27.85-16.08-63.45-32.88-106.44-45-17.6-4.96-34.5-8.62-50.09-11.2,0-150.89,0-301.96,0-452.84,20.69-3.85,44.08-9.59,69.22-18.2,34.85-11.95,64.04-26.36,87.32-39.89Z"/>
    <polygon class="cls-3" points="771.79 451.48 771.79 1037.68 1155.63 1182.39 1155.63 446.69 1242.37 414.48 1242.62 1215.45 1378.78 1266.8 1378.78 226.21 1014.79 361.37 1014.79 991.77 928.16 959.57 928.16 393.48 771.79 451.48"/>
  </g>
</svg>